<?xml version="1.0" encoding="UTF-8"?>
<svg fill="#fff" width="49px" height="49px" viewBox="0 0 49 48" version="1.1">
<path style="stroke:none;fill-rule:nonzero;fill:white;fill-opacity:1;" d="M 0 24 L 0 48 L 49 48 L 49 0 L 0 0 Z M 14.085938 12.699219 C 14.53125 13.101562 15.378906 14.601562 19.15625 21.332031 C 19.703125 22.332031 20.246094 23.300781 20.316406 23.433594 C 20.585938 23.898438 21.4375 22.964844 21.4375 22.199219 C 21.4375 21.832031 20.65625 20.132812 19.703125 18.5 C 18.75 16.832031 17.625 14.867188 17.183594 14.101562 C 16.402344 12.800781 16.402344 12.667969 16.945312 12.398438 C 17.695312 12 20.996094 12.101562 21.402344 12.535156 C 21.574219 12.699219 22.1875 13.765625 22.796875 14.898438 C 23.378906 16.066406 24.058594 17 24.328125 17 C 24.566406 17 25.179688 16.199219 25.65625 15.234375 C 27.222656 12.035156 26.679688 12.234375 33.382812 12.265625 C 38.65625 12.265625 39.300781 12.332031 39.402344 12.832031 C 39.472656 13.132812 39.300781 13.632812 39.03125 13.933594 C 38.792969 14.234375 38.214844 15.167969 37.804688 16 C 37.398438 16.832031 36.785156 17.933594 36.445312 18.5 C 36.101562 19.035156 35.253906 20.535156 34.539062 21.832031 C 33.824219 23.101562 32.835938 24.898438 32.328125 25.832031 C 31.816406 26.734375 30.863281 28.464844 30.183594 29.667969 C 29.535156 30.867188 28.445312 32.800781 27.765625 34 C 27.085938 35.199219 26.203125 36.867188 25.757812 37.734375 C 25.316406 38.699219 24.773438 39.332031 24.433594 39.332031 C 23.785156 39.332031 22.117188 36.601562 22.117188 35.5 C 22.117188 34.867188 23.378906 32.464844 28.242188 23.832031 C 31.441406 18.132812 31.714844 17.601562 31.375 17.265625 C 30.761719 16.667969 29.671875 17.332031 28.921875 18.765625 C 28.515625 19.535156 27.699219 21 27.121094 22 C 26.167969 23.765625 25.488281 24.964844 23.105469 29.234375 C 21.335938 32.398438 20.960938 33 20.722656 33 C 20.382812 33 19.667969 31.765625 13.917969 21.398438 C 11.910156 17.832031 10.785156 15.800781 10.003906 14.398438 C 9.5625 13.632812 9.1875 12.832031 9.1875 12.667969 C 9.1875 12 13.441406 12 14.085938 12.699219 Z M 14.085938 12.699219 "/>
</svg>
