<?xml version="1.0" standalone="no"?>
<!DOCTYPE svg PUBLIC "-//W3C//DTD SVG 20010904//EN"
 "http://www.w3.org/TR/2001/REC-SVG-20010904/DTD/svg10.dtd">
<svg version="1.0" xmlns="http://www.w3.org/2000/svg"
 width="144.000000pt" height="144.000000pt" viewBox="0 0 144.000000 144.000000"
 preserveAspectRatio="xMidYMid meet">
<metadata>
Created by potrace 1.10, written by Peter Selinger 2001-2011
</metadata>
<g transform="translate(0.000000,144.000000) scale(0.100000,-0.100000)"
fill="#000000" stroke="none">
<path d="M0 720 l0 -720 720 0 720 0 0 720 0 720 -720 0 -720 0 0 -720z m414
339 c13 -12 38 -57 149 -259 16 -30 32 -59 34 -63 8 -14 33 14 33 37 0 11 -23
62 -51 111 -28 50 -61 109 -74 132 -23 39 -23 43 -7 51 22 12 119 9 131 -4 5
-5 23 -37 41 -71 17 -35 37 -63 45 -63 7 0 25 24 39 53 46 96 30 90 227 89
155 0 174 -2 177 -17 2 -9 -3 -24 -11 -33 -7 -9 -24 -37 -36 -62 -12 -25 -30
-58 -40 -75 -10 -16 -35 -61 -56 -100 -21 -38 -50 -92 -65 -120 -15 -27 -43
-79 -63 -115 -19 -36 -51 -94 -71 -130 -20 -36 -46 -86 -59 -112 -13 -29 -29
-48 -39 -48 -19 0 -68 82 -68 115 0 19 37 91 180 350 94 171 102 187 92 197
-18 18 -50 -2 -72 -45 -12 -23 -36 -67 -53 -97 -28 -53 -48 -89 -118 -217 -52
-95 -63 -113 -70 -113 -10 0 -31 37 -200 348 -59 107 -92 168 -115 210 -13 23
-24 47 -24 52 0 20 125 20 144 -1z"/>
</g>
</svg>
